<?xml version="1.0" encoding="utf-8"?>
<svg viewBox="0 0 500 500" xmlns="http://www.w3.org/2000/svg">
  <path class="cls-2" d="M 397.814 293.295 C 419.185 307.037 431.777 323.733 431.777 341.82 C 431.777 388.199 349.326 425.713 247.614 425.713 C 145.902 425.713 63.434 388.233 63.434 341.854 C 63.434 323.767 76.044 307.037 97.414 293.329 C 62.565 310.403 41.194 333.421 41.194 358.74 C 41.194 411.422 133.612 454.124 247.614 454.124 C 361.616 454.124 454.016 411.422 454.016 358.74 C 454.016 333.421 432.734 310.403 397.814 293.329" style="fill: rgb(192, 32, 38);"/>
  <path class="cls-3" d="M 197.636 59.273 C 187.261 69.923 181.426 80.728 179.068 91.669 C 166.653 149.265 309.847 248.634 289.576 328.713 C 286.951 339.02 279.786 356.008 255.595 373.735 C 277.167 366.686 296.321 354.029 310.965 337.148 C 311.621 336.375 328.399 318.253 332.247 299.701 C 349.982 213.815 178.5 125.079 241.035 60.733 C 250.558 50.925 264.215 46.27 279.502 46.373 C 263.959 39.073 246.197 37.527 229.56 42.027 C 217.372 44.572 206.254 50.597 197.636 59.325" style="fill: rgb(237, 28, 36); fill-rule: evenodd;"/>
  <path class="cls-3" d="M 281.631 59.445 C 275.034 66.649 270.592 75.465 268.79 84.935 C 259.675 132.139 369.437 200.023 364.17 273.747 C 363.213 287.248 357.998 306.384 337.727 328.713 C 353.984 318.634 367.826 305.305 378.323 289.618 C 385.861 278.299 392.156 264.918 394.479 255.041 C 409.519 190.902 293.602 115.821 308.535 76.296 C 310.824 70.165 314.958 64.842 320.4 61.009 C 332.938 53.158 349.025 58.123 354.097 59.926 C 348.21 53.167 340.323 48.323 331.501 46.047 C 324.804 44.517 317.835 44.453 311.106 45.858 C 306.477 46.631 292.36 48.967 281.649 59.445" style="fill: rgb(237, 28, 36); fill-rule: evenodd;"/>
  <path class="cls-3" d="M 198.984 367.62 C 189.46 377.446 175.928 382.083 160.499 381.98 C 176.803 386.023 193.673 387.491 210.459 386.326 C 222.641 383.775 233.757 377.758 242.383 369.045 C 332.318 276.358 81.435 172.436 167.718 62.434 C 153.29 69.86 140.222 79.533 129.036 91.068 C 34.916 187.965 270.67 293.758 198.984 367.62" style="fill: rgb(237, 28, 36); fill-rule: evenodd;"/>
</svg>